<?xml version="1.0" encoding="utf-8"?>
<!-- Generator: Adobe Illustrator 27.1.1, SVG Export Plug-In . SVG Version: 6.00 Build 0)  -->
<svg version="1.1" id="Layer_1" xmlns="http://www.w3.org/2000/svg" xmlns:xlink="http://www.w3.org/1999/xlink" x="0px" y="0px"
	 viewBox="0 0 512 512" style="enable-background:new 0 0 512 512;" xml:space="preserve">
<style type="text/css">
	.st0{fill:#03004C;}
	.st1{fill:#8FE3FF;}
	.st2{fill:#109DFF;}
</style>
<g id="Squircle">
	<path class="st0" d="M256,512c112.1,0,174.5,0,215.3-40.7C512,430.6,512,368.2,512,256s0-174.5-40.7-215.3C430.6,0,368.2,0,256,0
		S81.5,0,40.7,40.7C0,81.4,0,143.8,0,256s0,174.5,40.7,215.3C81.5,512,143.9,512,256,512z"/>
</g>
<g id="Guidelines">
	<g>
		<path class="st1" d="M179.8,139.9c-5.2-3.3-11.7,1.8-9.7,7.6c6.6,18.5,10.2,38.4,10.2,59.1c0,57-27,107.7-68.9,139.9
			c-2.7,2.1-3.5,5.9-1.6,8.8c19.4,28.6,46.9,51.1,79.3,64.3c2.2,0.9,4.8,0.5,6.6-1c39.2-31.4,64.4-79.6,64.4-133.7
			C260.1,223.8,228,170.2,179.8,139.9z"/>
		<path class="st2" d="M381,131.6c-22-22.2-50-38.5-81.3-46.3c-2.4-0.6-4.9,0.2-6.5,2c-20.2,22.6-34.7,50.6-41,81.4
			c-0.4,1.7,0,3.5,1,5c21.6,31.8,34.3,70.1,34.3,111.3c0,8.5-0.6,16.8-1.6,25.1c-0.2,1.8,0.2,3.5,1.3,4.9
			c16.1,20.1,36.5,36.6,59.8,48.1c5.8,2.9,11.8-3.7,8.4-9.3c-15.6-26.3-24.6-57.1-24.6-89.9c0-47.9,19.1-91.3,50-123.2
			C383.4,138.2,383.5,134.1,381,131.6z"/>
	</g>
</g>
</svg>
