<svg width="139" height="139" viewBox="0 0 139 139">
    <g stroke="none" stroke-width="1" fill="none" fill-rule="evenodd">
        <path d="M69.5,0 C107.88379,0 139,31.1162099 139,69.5 C139,107.88379 107.88379,139 69.5,139 C31.1162099,139 0,107.88379 0,69.5 C0,31.1162099 31.1162099,0 69.5,0 Z M51.0542858,107 C50.4285716,107 49.8897619,106.774047 49.437857,106.322143 C48.9859526,105.870238 48.76,105.331428 48.76,104.705714 C48.76,104.358095 48.8295238,104.045238 48.9685716,103.767143 L71.4942857,55.3785714 L42.8157146,55.3785714 C42.0509526,55.3785714 41.3904761,55.1004762 40.8342858,54.5442857 C40.2780951,53.9880952 40,53.327619 40,52.5628571 L40,36.8157143 C40,36.0509524 40.2780951,35.3904762 40.8342858,34.8342857 C41.3904761,34.2780952 42.0509526,34 42.8157146,34 L102.702266,34 C103.536552,34 104.214409,34.2780952 104.735838,34.8342857 C105.257266,35.3904762 105.517981,36.0509538 105.517981,36.8157143 C105.517981,40.1920057 98.5390475,55.2047619 98.1914285,55.9 L75.4571427,104.601428 C75.2485715,104.949047 74.8140476,105.435714 74.1535715,106.061428 C73.4930954,106.687143 72.5023808,107 71.1814286,107 L51.0542858,107 Z" fill="currentColor"></path>
    </g>
</svg>