<?xml version="1.0" encoding="UTF-8"?>
<svg width="139px" height="138px" viewBox="0 0 139 138" version="1.1" xmlns="http://www.w3.org/2000/svg" xmlns:xlink="http://www.w3.org/1999/xlink">
    <title>favicon</title>
    <g id="Page-1" stroke="none" stroke-width="1" fill="none" fill-rule="evenodd">
        <g id="favicon">
            <circle id="Oval" fill="#FFFFFF" cx="69.5" cy="68.5" r="66.5"></circle>
            <path d="M127.97,88.61 L128.7,89.52 L129,90.06 L129.54,91.17 L129.66,91.65 L129.76,92.53 L129.57,92.72 L129.39,93.65 L129.79,94.33 L130.15,94.62 L130.97,95.16 L131.43,95.3 L132.38,95.46 L132.8,95.33 L133.73,95.18 L133.77,95.39 L133.48,95.64 L132.68,96.8 L132.24,97.88 L132.14,98.41 L131.63,100.03 L131.03,101.34 L130.61,102.09 L129.71,103.64 L129.16,104.49 L128,106.23 L127.34,107.14 L124.52,110.88 L122.91,112.77 L119.61,116.5 L117.9,118.18 L114.7,121.06 L112.37,122.91 L111.11,123.8 L105.88,127.24 L103.03,128.75 L97.22,131.59 L94.23,132.71 L88.23,134.75 L85.28,135.4 L81.58,136.13 L79.7,136.38 L75.92,136.8 L74.01,136.9 L70.19,137.02 L68.27,136.97 L64.44,136.78 L62.53,136.58 L58.73,136.1 L56.84,135.75 L53.09,134.98 L51.25,134.49 L47.6,133.42 L45.82,132.79 L42.29,131.44 L40.59,130.66 L38.07,129.4 L36.25,128.4 L35.29,127.83 L31.36,125.43 L29.44,124.14 L25.71,121.53 L24.18,120.32 L22.72,119.14 L22.11,118.6 L21,117.58 L20.62,117.14 L19.6,115.96 L19.32,115.5 L19.42,115.4 L19.77,115.29 L20.21,115.33 L21.29,115.48 L22.13,115.62 L23.84,115.78 L24.79,115.73 L25.19,115.61 L25.96,115.31 L26.32,115.05 L27.03,114.48 L27.4,114.07 L29.19,112.59 L30.41,111.98 L30.84,111.98 L32.15,112.32 L33.63,112.87 L34.59,113.26 L36.64,114.13 L37.8,114.65 L40.19,115.75 L41.43,116.35 L46.12,118.58 L48.78,119.8 L49.94,120.29 L52.17,121.2 L53.18,121.55 L55.15,122.18 L56.1,122.41 L57.99,122.82 L58.97,122.96 L60.96,123.19 L62.06,123.25 L64.33,123.34 L65.64,123.35 L68.38,123.35 L69.98,123.33 L74.74,123.15 L77.68,122.93 L79.05,122.76 L81.74,122.37 L83.02,122.1 L85.54,121.53 L86.76,121.16 L91.53,119.49 L93.91,118.29 L96.31,117.04 L97.54,116.31 L100.03,114.78 L101.34,113.91 L104.24,111.71 L106.59,109.72 L107.89,108.55 L110.56,106.11 L111.94,104.79 L114.71,102.12 L116.05,100.78 L118.68,98.11 L119.86,96.86 L122.11,94.44 L123.01,93.4 L123.87,92.39 L124.24,91.95 L124.91,91.09 L125.17,90.74 L125.62,90.07 L125.76,89.82 L125.97,89.37 L125.97,89.23 L126.26,88.35 L126.68,87.98 L126.94,87.98 M88.58,33.79 L91.82,33.8 L93.23,33.8 L95.92,33.82 L97.07,33.84 L99.26,33.88 L100.19,33.91 L101.94,33.96 L102.67,34 L104.04,34.09 L104.6,34.14 L105.64,34.25 L106.06,34.31 L107.48,34.61 L107.91,34.81 L108.65,35.24 L108.91,35.52 L109.41,36.12 L109.73,36.49 L111.32,38.76 L111.69,39.49 L111.8,39.8 L111.98,40.38 L111.98,40.58 L111.86,41.08 L111.66,41.61 L111.51,41.95 L110.76,43.53 L110.22,44.57 L109.03,46.79 L108.31,48.06 L106.8,50.69 L105.98,52.06 L103.65,56.05 L102.29,58.5 L101.74,59.53 L100.76,61.45 L100.45,62.12 L100.18,62.74 L100.1,62.97 L99.98,63.36 L99.98,63.45 L100.32,64.13 L100.87,64.53 L101.29,64.71 L102.21,65.05 L102.8,65.19 L104.04,65.45 L104.77,65.54 L107.92,65.85 L109.76,65.86 L113.58,65.79 L115.59,65.58 L118.38,65.38 L120.08,65.35 L120.8,65.39 L122.18,65.49 L122.72,65.59 L123.69,65.82 L123.99,65.99 L125.32,67.2 L125.84,68.25 L125.91,68.81 L125.93,69.93 L125.73,70.43 L125.21,71.36 L124.73,71.67 L124.18,71.84 L123.54,71.96 L123.1,72.02 L122.14,72.15 L121.55,72.21 L120.31,72.33 L119.59,72.39 L116.51,72.62 L114.72,72.72 L110.99,72.91 L108.99,72.98 L94.51,73.48 L90.49,80.18 L89.57,81.76 L88.85,83.01 L88.46,83.71 L86.8,86.7 L85.9,88.37 L82.13,95.43 L80.48,98.67 L78.07,103.31 L76.58,106.09 L75.95,107.22 L74.77,109.3 L74.34,109.99 L73.95,110.61 L73.8,110.82 L73.55,111.16 L73.48,111.21 L73.24,111.31 L72.97,111.36 L72.33,111.45 L71.89,111.5 L70.91,111.59 L70.3,111.63 L69.02,111.7 L68.28,111.74 L65.09,111.86 L63.21,111.9 L59.3,111.96 L57.2,111.96 L52.93,111.96 L50.51,111.93 L49.49,111.91 L47.57,111.86 L46.79,111.83 L45.32,111.75 L44.74,111.69 L43.67,111.58 L43.26,111.5 L42.52,111.34 L42.26,111.25 L41.47,110.81 L41.35,110.5 L41.49,109.3 L41.94,107.92 L42.32,106.97 L43.18,104.9 L43.75,103.64 L44.99,100.99 L45.73,99.48 L47.29,96.34 L48.17,94.62 L50.01,91.09 L51.02,89.22 L53.08,85.39 L54.18,83.41 L56.43,79.39 L57.6,77.34 L59.94,73.24 L61.45,70.56 L62.12,69.35 L63.4,67.04 L63.9,66.12 L64.37,65.24 L64.56,64.88 L64.91,64.22 L65.03,63.98 L66.8,60.48 L51.39,60.2 L35.98,59.93 L35.98,33.98 L60.23,33.88 L68.95,33.85 L74.18,33.82 L76.53,33.82 L81.04,33.8 L83.04,33.8 L86.89,33.79 M87.42,104.29 L88.29,104.83 L88.54,105.33 L88.91,106.46 L88.8,107.22 L88.47,108.41 L88.15,108.83 L87.41,109.53 L86.95,109.68 L86,109.82 L85.52,109.66 L84.57,109.19 L84.15,108.69 L83.55,107.22 L83.85,106.18 L84.35,105.49 L85.87,104.29 L86.95,104.11 M43.18,45.73 L42.88,51.98 L60.87,51.98 L67.89,52.04 L70.02,52.08 L70.99,52.11 L72.88,52.17 L73.72,52.2 L75.31,52.27 L75.99,52.31 L77.24,52.4 L77.73,52.44 L78.6,52.54 L78.87,52.58 L79.3,52.68 L79.33,52.74 L79.15,53.39 L78.77,54.3 L78.46,54.96 L77.76,56.43 L77.3,57.36 L76.32,59.32 L75.73,60.47 L74.5,62.86 L73.81,64.19 L72.37,66.93 L71.58,68.42 L68.27,74.62 L66.43,77.99 L61.23,87.56 L59.67,90.46 L58.96,91.79 L57.58,94.37 L56.97,95.52 L55.82,97.71 L55.33,98.63 L54.43,100.36 L54.09,101.03 L53.48,102.24 L53.3,102.61 L53.02,103.22 L53.02,103.27 L53.21,103.48 L53.58,103.56 L54.47,103.7 L55.12,103.75 L56.55,103.82 L57.42,103.83 L59.23,103.81 L60.23,103.77 L67.48,103.48 L78.98,81.94 L83.87,72.84 L87.14,66.79 L88.67,63.99 L90.16,61.24 L90.86,59.97 L92.22,57.5 L92.83,56.39 L94,54.28 L94.5,53.38 L95.44,51.71 L95.81,51.07 L97.81,47.38 L98.92,45.16 L99.32,44.24 L100.03,42.55 L100.21,41.98 L100.34,41.46 L100.36,41.29 L100.36,40.99 L100.31,40.94 L99.57,40.77 L98.54,40.66 L97.78,40.6 L96.1,40.49 L95.05,40.44 L92.8,40.33 L91.5,40.28 L88.77,40.18 L87.25,40.14 L84.11,40.05 L82.42,40.01 L75.33,39.86 L71.48,39.81 L43.48,39.48 M107.77,83.27 L108.31,83.7 L108.48,83.98 L108.63,84.5 L108.46,84.69 L107.97,84.98 L107.54,84.98 L106.44,84.69 L105.98,84.25 L105.98,83.98 L106.26,83.27 L106.66,82.98 L106.92,82.98" id="Shape" fill="#001935" fill-rule="nonzero"></path>
            <path d="M51.25,134.49 L53.09,134.98 L56.84,135.75 L58.73,136.1 L62.53,136.58 L63.6,136.69 L62.73,136.66 L60.01,136.35 L57.34,136 L56.1,135.78 L53.68,135.3 L52.59,135 L49.33,133.93 M87.26,134.96 L85.28,135.4 L82.8,135.89 L82.73,135.9 L85.28,135.4 L87.26,134.96 M111.73,123.38 L108.62,125.59 L106.99,126.6 L103.69,128.56 L101.96,129.44 L98.47,131.13 L96.65,131.86 L92.99,133.27 L91.09,133.86 L89.52,134.31 L94.23,132.71 L97.22,131.59 L103.03,128.75 L105.88,127.24 L111.11,123.8 L112.2,123.03 M45.5,132.66 L45.35,132.61 L45.15,132.53 M34.28,127.22 L33.86,126.99 L33.14,126.52 M15.1,89.52 L15.88,90 L16.52,90.58 L16.88,90.96 L18.41,92.71 L19.16,93.74 L20.62,95.83 L21.14,96.75 L21.61,97.62 L21.75,97.98 L21.98,98.64 L21.98,98.86 L22.57,99.77 L23.49,100.84 L24.16,101.55 L25.64,103.08 L26.52,103.95 L28.39,105.76 L29.41,106.72 L36.45,112.44 L41.57,115.86 L44.22,117.3 L49.53,119.99 L52.1,120.97 L54.66,121.89 L55.89,122.25 L58.12,122.84 L57.99,122.82 L56.1,122.41 L55.15,122.18 L53.18,121.55 L52.17,121.2 L49.94,120.29 L48.78,119.8 L46.12,118.58 L41.43,116.35 L40.19,115.75 L37.8,114.65 L36.64,114.13 L34.59,113.26 L33.63,112.87 L32.15,112.32 L30.84,111.98 L30.41,111.98 L29.19,112.59 L27.4,114.07 L27.03,114.48 L26.32,115.05 L25.96,115.31 L25.19,115.61 L24.79,115.73 L23.84,115.78 L22.13,115.62 L21.29,115.48 L20.21,115.33 L19.77,115.29 L19.42,115.4 L19.32,115.5 L19.41,115.65 L16.37,112.5 L14.8,110.6 L11.8,106.73 L10.49,104.71 L8.01,100.62 L7,98.51 L4.12,92.54 L8.79,90.77 L12.57,89.67 L13.66,89.48 L14.09,89.46 L14.88,89.45 M113.25,122.25 L112.49,122.82 L114,121.61 M96.31,117.04 L93.91,118.29 L91.53,119.49 L86.76,121.16 L85.54,121.53 L83.02,122.1 L81.74,122.37 L79.48,122.7 L79.82,122.63 L83.31,121.9 L85.01,121.43 L88.37,120.44 L89.98,119.85 L93.13,118.61 L94.59,117.91 L96.37,117 M125.16,110.17 L123.97,111.63 L121.54,114.51 L120.24,115.87 L117.57,118.55 L116.15,119.8 L115.39,120.44 L117.9,118.18 L119.61,116.5 L122.91,112.77 L124.52,110.88 L126.71,107.98 M138.98,69.02 L138.72,74.98 L138.3,78.88 L137.97,80.8 L137.22,84.6 L136.73,86.46 L135.67,90.15 L135.03,91.95 L133.75,95.29 L133.73,95.18 L132.8,95.33 L132.38,95.46 L131.43,95.3 L130.97,95.16 L130.15,94.62 L129.79,94.33 L129.39,93.65 L129.57,92.72 L129.76,92.53 L129.66,91.65 L129.54,91.17 L129,90.06 L128.7,89.52 L127.97,88.61 L126.94,87.98 L126.68,87.98 L126.26,88.35 L125.97,89.23 L125.97,89.37 L125.76,89.82 L125.62,90.07 L125.17,90.74 L124.91,91.09 L124.24,91.95 L123.87,92.39 L123.01,93.4 L122.11,94.44 L119.86,96.86 L118.68,98.11 L116.05,100.78 L114.71,102.12 L111.94,104.79 L110.56,106.11 L107.89,108.55 L106.59,109.72 L104.24,111.71 L101.34,113.91 L100.03,114.78 L99.4,115.17 L101.69,113.56 L103.73,111.94 L104.76,111.03 L108.9,107.15 L110.86,104.99 L114.68,100.58 L116.29,98.37 L117.84,96.16 L118.5,95.09 L119.77,92.98 L120.27,91.98 L122.66,86.4 L124,82.47 L124.48,80.66 L124.92,78.9 L125.08,78.11 L125.35,76.6 L125.42,75.97 L125.5,74.8 L125.46,74.38 L125.32,73.66 L125.16,73.49 L124.76,73.39 L124.2,73.33 L123.8,73.3 L122.9,73.23 L122.34,73.21 L121.15,73.15 L120.46,73.13 L117.45,73.05 L115.66,73.02 L111.91,72.98 L108.99,72.98 L110.99,72.91 L114.72,72.72 L116.51,72.62 L119.59,72.39 L120.31,72.33 L121.55,72.21 L122.14,72.15 L123.1,72.02 L123.54,71.96 L124.18,71.84 L124.73,71.67 L125.21,71.36 L125.73,70.43 L125.93,69.93 L125.91,68.81 L125.84,68.25 L125.32,67.2 L123.99,65.99 L123.69,65.82 L122.72,65.59 L122.18,65.49 L120.8,65.39 L120.08,65.35 L118.38,65.38 L116.87,65.49 L117.05,65.47 L119.89,65.24 L121.44,65.1 L122.06,65.03 L123.2,64.88 L123.64,64.8 L124.43,64.63 L124.72,64.53 L125.62,64.08 L125.79,63.73 L125.98,62.95 L125.98,62.37 L126.2,60.66 L126.52,59.92 L126.73,59.9 L127.47,59.85 L128.36,59.81 L128.95,59.79 L131.65,59.69 L133.23,59.65 L138.98,59.48 M81.47,96.77 L80.74,98.31 L79.34,101.31 L78.78,102.59 L77.77,104.99 L77.46,105.87 L77.19,106.7 L77.1,107.02 L76.98,107.6 L76.98,107.78 L76.53,110.3 L75.79,111.44 L75.23,111.69 L74.55,111.84 L73.8,111.93 L73.29,111.96 L72.18,112.02 L71.51,112.05 L70.1,112.09 L69.3,112.1 L65.84,112.13 L63.84,112.11 L59.69,112.05 L57.49,111.98 L57.04,111.96 L57.2,111.96 L59.3,111.96 L63.21,111.9 L65.09,111.86 L68.28,111.74 L69.02,111.7 L70.3,111.63 L70.91,111.59 L71.89,111.5 L72.33,111.45 L72.97,111.36 L73.24,111.31 L73.48,111.21 L73.55,111.16 L73.8,110.82 L73.95,110.61 L74.34,109.99 L74.77,109.3 L75.95,107.22 L76.58,106.09 L78.07,103.31 L80.48,98.67 L82.13,95.43 L82.28,95.15 M42.32,106.97 L41.94,107.92 L41.49,109.3 L41.37,110.35 L41.28,110.29 L41.22,109.98 L41.3,109.45 L41.48,108.87 L41.64,108.47 L41.98,107.61 L42.2,107.08 L42.69,105.97 L42.98,105.34 L43.14,105 M59.23,103.81 L59.05,103.82 L59.37,103.81 L60.11,103.78 L67.48,103.48 L60.23,103.77 M53.16,103.2 L53.32,103.37 L53.65,103.57 L53.58,103.56 L53.21,103.48 L53.02,103.27 L53.02,103.22 L53.25,102.72 M71.48,39.81 L75.33,39.86 L82.42,40.01 L84.11,40.05 L87.25,40.14 L88.77,40.18 L91.5,40.28 L92.8,40.33 L95.05,40.44 L96.1,40.49 L97.78,40.6 L98.54,40.66 L99.57,40.77 L100.31,40.94 L100.36,40.99 L100.36,41.29 L100.36,41.36 L99.45,41.29 L98.74,41.26 L97.16,41.19 L96.16,41.17 L94.04,41.12 L92.81,41.1 L90.24,41.06 L88.83,41.05 L85.92,41.03 L84.37,41.02 L77.96,41 L74.62,41.01 L67.93,41.03 L64.75,41.06 L61.61,41.09 L60.13,41.11 L57.25,41.16 L55.93,41.18 L53.39,41.24 L52.29,41.27 L50.2,41.33 L49.36,41.37 L47.82,41.44 L47.29,41.48 L46.4,41.56 L46.23,41.61 L45.08,42.08 L44.56,42.55 L44.39,42.9 L44.13,43.72 L44.06,44.32 L43.98,45.66 L43.98,50.94 L62.43,51.21 L80.88,51.48 L67.33,76.41 L62.02,86.2 L60.41,89.19 L59.67,90.56 L58.24,93.23 L57.6,94.42 L56.38,96.71 L55.87,97.68 L54.9,99.5 L54.53,100.21 L53.85,101.51 L53.76,101.68 L54.09,101.03 L54.43,100.36 L55.33,98.63 L55.82,97.71 L56.97,95.52 L57.58,94.37 L58.96,91.79 L59.67,90.46 L61.23,87.56 L66.43,77.99 L68.27,74.62 L71.58,68.42 L72.37,66.93 L73.81,64.19 L74.5,62.86 L75.73,60.47 L76.32,59.32 L77.3,57.36 L77.76,56.43 L78.46,54.96 L78.77,54.3 L79.15,53.39 L79.33,52.74 L79.3,52.68 L78.87,52.58 L78.6,52.54 L77.73,52.44 L77.24,52.4 L75.99,52.31 L75.31,52.27 L73.72,52.2 L72.88,52.17 L70.99,52.11 L70.02,52.08 L67.89,52.04 L60.87,51.98 L42.88,51.98 L43.18,45.73 L43.48,39.48 M133.67,95.5 L132.88,97.23 L131.81,99.45 L132.14,98.41 L132.24,97.88 L132.68,96.8 L133.48,95.64 L133.69,95.46 M107.67,78.47 L108.16,78.62 L109.1,79.02 L109.51,79.34 L110.3,80.07 L110.62,80.52 L111.19,81.49 L111.39,82.04 L111.71,83.18 L111.75,83.79 L111.76,85.04 L111.63,85.67 L111.27,86.94 L110.94,87.56 L110.2,88.8 L109.83,89.19 L109.08,89.79 L108.65,89.85 L107.74,89.83 L107.17,89.59 L105.97,88.96 L105.2,88.42 L103.51,86.29 L102.92,84.46 L102.9,83.5 L103.04,81.61 L103.38,80.81 L103.78,80.05 L104.04,79.74 L104.62,79.17 L104.98,78.98 L106.62,78.46 M62.12,69.35 L61.45,70.56 L59.94,73.24 L57.6,77.34 L56.43,79.39 L54.18,83.41 L53.08,85.39 L51.59,88.16 L51.78,87.79 L53.94,83.81 L56.1,79.86 L57.15,77.99 L59.22,74.35 L60.18,72.73 L62.38,68.88 M106.66,82.98 L106.26,83.27 L105.98,83.98 L105.98,84.25 L106.44,84.69 L107.54,84.98 L107.97,84.98 L108.46,84.69 L108.63,84.5 L108.48,83.98 L108.31,83.7 L107.77,83.27 L106.92,82.98 M93.18,75.73 L92.9,76.16 L94.51,73.48 L94.77,73.47 M104.68,65.52 L106.25,65.68 L107.15,65.72 L109.02,65.79 L110.06,65.78 L112.21,65.75 L113.38,65.7 L115.46,65.59 L113.58,65.79 L109.76,65.86 L107.92,65.85 L104.77,65.54 L104.04,65.45 L104.02,65.44 M99.98,63.45 L99.98,63.43 L100.08,63.65 M66.8,60.48 L65.76,62.55 L66.67,60.48 M35.98,59.98 L35.98,59.93 L38.82,59.98 M114.07,54.07 L114.47,54.22 L114.58,54.35 L114.75,54.64 L114.75,54.84 L114.69,55.28 L114.59,55.56 L114.16,56.95 L113.98,57.81 L113.98,58.06 L113.83,58.62 L113.59,58.77 L113,58.97 L112.62,58.94 L111.8,58.81 L111.38,58.62 L110.55,58.15 L110.2,57.8 L109.64,56.56 L109.8,55.7 L110.1,55.31 L110.83,54.6 L111.36,54.36 L112.52,53.98 L113.21,53.98 M95.81,51.07 L95.75,51.16 L95.82,51.04 M87.13,66.81 L88.64,64.03 L90.14,61.29 L90.83,60.03 L92.18,57.57 L92.78,56.47 L93.95,54.37 L94.44,53.49 L95.37,51.83 L95.43,51.73 L94.5,53.38 L94,54.28 L92.83,56.39 L92.22,57.5 L90.86,59.97 L90.16,61.24 L88.67,63.99 L87.14,66.79 L83.87,72.84 L78.98,81.94 L83.86,72.85" id="Shape" fill="#052F5D" fill-rule="nonzero"></path>
            <path d="M88.5,134.69 L85.71,135.3 L87.26,134.96 L90.42,134.05 M97.65,131.53 L94.64,132.65 L94.35,132.74 L96.65,131.86 L98.47,131.13 L98.57,131.08 M106.13,127.21 L104.33,128.18 L106.99,126.6 L107.2,126.47 M2.72,49.79 L3.06,50.24 L3.28,50.73 L4.26,52.25 L5,52.82 L5.4,52.88 L6.23,52.86 L6.66,52.63 L7.54,52.01 L7.98,51.48 L9.2,50.32 L9.89,50.02 L10.18,50.1 L10.73,50.42 L10.96,50.82 L11.39,51.77 L11.57,52.48 L12.27,54.25 L12.84,54.98 L13.09,54.98 L13.72,55.73 L13.98,56.84 L13.98,57.55 L14.26,59.73 L14.7,61.24 L15.01,61.95 L15.67,63.32 L16.06,63.87 L16.85,64.85 L17.26,65.12 L17.75,65.24 L18.34,65.3 L18.76,65.33 L19.68,65.37 L20.24,65.39 L21.44,65.41 L22.12,65.42 L25.1,65.42 L26.85,65.39 L30.48,65.3 L32.43,65.23 L38.31,65.08 L42.1,65.04 L43.8,65.06 L47.04,65.11 L48.3,65.16 L49.5,65.22 L49.99,65.26 L50.88,65.34 L51.2,65.39 L55.77,66.07 L54.63,69.11 L53.85,70.86 L53.25,71.56 L52.74,71.74 L52.19,71.88 L51.82,71.92 L51.04,71.98 L50.54,71.99 L49.46,71.98 L48.79,71.96 L47.35,71.91 L46.48,71.88 L44.81,71.82 L43.5,71.79 L42.76,71.78 L39.58,71.74 L37.79,71.73 L30.24,71.74 L26.73,71.79 L13.98,71.98 L13.98,74.93 L14.74,82.07 L16,86.77 L16.99,89.07 L19.23,93.62 L20.7,95.82 L23.87,100.15 L25.8,102.22 L28.1,104.53 L29.4,105.63 L29.97,105.99 L31.1,106.6 L31.65,106.76 L32.76,106.98 L33.37,106.98 L34.96,106.89 L35.68,106.71 L35.91,106.54 L36.28,106.13 L36.36,105.81 L36.48,105.08 L36.48,104.58 L36.31,102.98 L36.06,102.43 L35.9,102.53 L35.43,102.44 L34.9,102.16 L34.56,101.93 L33.03,100.79 L32.16,100 L30.86,98.67 L30.21,97.86 L29.99,97.49 L29.62,96.79 L29.55,96.48 L29.46,95.9 L29.53,95.66 L29.72,95.21 L29.92,95.05 L30.39,94.75 L30.73,94.66 L31.47,94.53 L31.94,94.54 L32.95,94.59 L33.55,94.68 L36.36,94.76 L37.84,94.37 L38.37,93.95 L39.32,92.95 L39.59,92.23 L40,90.63 L40.02,89.61 L40.05,86.48 L41.42,88.96 L42.08,90.34 L42.29,91.11 L42.29,91.49 L42.21,92.25 L42.05,92.69 L41.67,93.61 L41.37,94.2 L40.06,96.93 L39.21,98.89 L38.93,99.62 L38.44,101.04 L38.41,101.47 L38.6,101.41 L39.12,101.11 L39.64,100.67 L40.21,100.19 L40.57,99.86 L41.34,99.17 L41.81,98.75 L44.99,96.01 L45.92,95.26 L46.29,94.97 L46.96,94.48 L47.16,94.36 L47.97,93.43 L48.83,92.21 L49.39,91.34 L50.6,89.44 L51.31,88.27 L52.8,85.8 L53.54,84.54 L51.78,87.79 L47.71,95.64 L46.76,97.52 L45.07,100.94 L44.27,102.57 L42.98,105.34 L42.69,105.97 L42.2,107.08 L41.98,107.61 L41.64,108.47 L41.48,108.87 L41.3,109.45 L41.22,109.98 L41.28,110.29 L42.01,110.76 L42.27,110.86 L43,111.05 L43.42,111.13 L44.51,111.29 L45.11,111.36 L46.63,111.49 L47.44,111.55 L49.43,111.67 L50.5,111.72 L53.03,111.83 L57.49,111.98 L59.69,112.05 L63.84,112.11 L65.84,112.13 L69.3,112.1 L70.1,112.09 L71.51,112.05 L72.18,112.02 L73.29,111.96 L73.8,111.93 L74.55,111.84 L75.23,111.69 L75.79,111.44 L76.53,110.3 L76.98,107.78 L76.98,107.6 L77.1,107.02 L77.19,106.7 L77.46,105.87 L77.77,104.99 L78.78,102.59 L79.34,101.31 L80.74,98.31 L81.47,96.77 L83.13,93.44 L84.83,90.07 L88.46,83.45 L89.34,81.88 L90.99,79.11 L93.18,75.73 L95.12,72.98 L111.91,72.98 L115.66,73.02 L117.45,73.05 L120.46,73.13 L121.15,73.15 L122.34,73.21 L122.9,73.23 L123.8,73.3 L124.2,73.33 L124.76,73.39 L125.16,73.49 L125.32,73.66 L125.46,74.38 L125.5,74.8 L125.42,75.97 L125.35,76.6 L125.08,78.11 L124.92,78.9 L124.48,80.66 L124,82.47 L122.66,86.4 L120.27,91.98 L119.77,92.98 L118.5,95.09 L117.84,96.16 L116.29,98.37 L114.68,100.58 L110.86,104.99 L108.9,107.15 L104.76,111.03 L103.73,111.94 L101.69,113.56 L98.73,115.64 L97.44,116.45 L94.59,117.91 L93.13,118.61 L89.98,119.85 L88.37,120.44 L85.01,121.43 L83.31,121.9 L79.82,122.63 L78.07,122.96 L74.54,123.42 L72.78,123.62 L69.31,123.78 L67.58,123.83 L64.24,123.69 L59.48,123.11 L58.33,122.9 L55.89,122.25 L54.66,121.89 L52.1,120.97 L49.53,119.99 L44.22,117.3 L41.57,115.86 L36.45,112.44 L29.41,106.72 L28.39,105.76 L26.52,103.95 L25.64,103.08 L24.16,101.55 L23.49,100.84 L22.57,99.77 L21.98,98.86 L21.98,98.64 L21.75,97.98 L21.61,97.62 L21.14,96.75 L20.62,95.83 L19.16,93.74 L18.41,92.71 L16.88,90.96 L16.52,90.58 L15.88,90 L15.1,89.52 L14.88,89.45 L14.09,89.46 L13.66,89.48 L12.57,89.67 L8.79,90.77 L4.55,92.38 L3.59,89.85 L2.97,87.81 L1.83,83.69 L1.41,81.58 L0.65,77.32 L0.42,75.15 L0.06,70.79 L0.03,68.57 L0.08,64.12 L0.26,61.86 L0.73,57.34 L1.13,55.06 L1.47,53.16 L1.67,52.13 L1.76,51.71 L2.1,50.34 L2.25,50.04 L2.55,49.66 M113.84,121.8 L113.39,122.13 L114.59,121.12 M120.72,115.38 L120.57,115.53 L120.78,115.3 M85.87,104.29 L84.35,105.49 L83.85,106.18 L83.55,107.22 L84.15,108.69 L84.57,109.19 L85.52,109.66 L86,109.82 L86.95,109.68 L87.41,109.53 L88.15,108.83 L88.47,108.41 L88.8,107.22 L88.91,106.46 L88.54,105.33 L88.29,104.83 L87.42,104.29 L86.95,104.11 M126.69,108.02 L126.63,108.08 L126.71,107.97 M100.21,92.03 L98.34,92.22 L97.52,92.48 L95.99,93.11 L95.52,93.59 L94.56,95.24 L94.39,96.51 L94.54,97.19 L94.99,98.57 L95.43,99.25 L96.46,100.61 L97.18,101.23 L98.43,102.22 L99,102.5 L100.11,102.9 L100.64,102.88 L101.7,102.69 L102.25,102.38 L103.37,101.59 L103.98,100.98 L105.31,99.07 L105.83,97.65 L105.9,96.92 L105.92,95.49 L105.74,94.85 L105.24,93.64 L104.78,93.18 L102.87,92.25 L101.14,91.99 M131.66,99.8 L131.58,99.95 L131.83,99.41 M134.33,93.84 L134.21,94.1 L134.44,93.49 M104.98,78.98 L104.62,79.17 L104.04,79.74 L103.78,80.05 L103.38,80.81 L103.04,81.61 L102.9,83.5 L102.92,84.46 L103.51,86.29 L105.2,88.42 L105.97,88.96 L107.17,89.59 L107.74,89.83 L108.65,89.85 L109.08,89.79 L109.83,89.19 L110.2,88.8 L110.94,87.56 L111.27,86.94 L111.63,85.67 L111.76,85.04 L111.75,83.79 L111.71,83.18 L111.39,82.04 L111.19,81.49 L110.62,80.52 L110.3,80.07 L109.51,79.34 L109.1,79.02 L108.16,78.62 L107.67,78.47 L106.62,78.46 M111.24,73.98 L108.29,74 L106.53,74.03 L105.75,74.05 L102.9,74.17 L101.84,74.28 L99.97,74.51 L99.38,74.66 L98.42,75.01 L98.25,75.23 L97.38,76.73 L96.99,77.84 L96.89,78.42 L96.69,80.73 L96.89,81.71 L97.14,82.64 L97.33,83.01 L97.75,83.67 L98.01,83.86 L98.58,84.15 L98.91,84.12 L99.6,83.94 L99.98,83.63 L101.36,82.2 L102.28,81 L102.58,80.46 L103.32,79.55 L103.98,79.07 L104.41,78.88 L105.33,78.54 L105.9,78.43 L107.1,78.23 L107.82,78.17 L109.98,78.13 L111.14,78.26 L111.63,78.43 L112.59,78.83 L113.05,79.15 L113.96,79.87 L114.47,80.38 L116.24,82.85 L116.65,83.73 L116.78,84.15 L116.98,84.94 L116.98,85.27 L117.18,87.14 L117.46,88.13 L117.65,88.31 L118.21,88.79 L118.49,88.9 L119.04,89.03 L119.31,88.97 L119.83,88.77 L120.08,88.55 L120.57,88.03 L120.79,87.66 L121.23,86.85 L121.43,86.34 L121.81,85.25 L121.97,84.61 L122.55,81.78 L122.71,80.02 L123.26,73.98 M138.83,74.28 L138.58,77.11 L138.3,79.86 L138.12,81.09 L137.72,83.41 L137.47,84.36 L136.46,87.4 L136.73,86.46 L137.22,84.6 L137.97,80.8 L138.3,78.88 L138.72,74.98 L138.89,71.17 M36.72,82.05 L37.74,82.19 L38.04,82.33 L38.53,82.67 L38.63,82.94 L38.74,83.55 L38.71,83.98 L38.61,84.71 L38.47,84.97 L38.14,85.43 L37.86,85.58 L37.19,85.83 L36.71,85.89 L35.62,85.98 L34.87,85.98 L33.23,85.88 L32.33,85.71 L31.97,85.58 L31.31,85.28 L31.08,85.09 L30.69,84.66 L30.59,84.4 L30.13,83 L30.14,82.44 L30.38,82.29 L31.04,82.06 L31.69,82.02 L32.4,81.99 L32.85,81.99 L33.83,81.98 L34.42,81.98 M65.68,62.73 L65.51,63.11 L64.87,64.37 L64.51,65.07 L63.57,66.8 L62.47,68.72 L62.83,68.07 L64.67,64.61 L65.75,62.56 M112.21,65.75 L111.42,65.76 L112.58,65.74 M121.44,65.1 L119.89,65.24 L117.05,65.47 L115.77,65.58 L115.5,65.59 L116.6,65.5 L121.52,65.09 M100.81,64.54 L101.21,64.72 L102.1,65.05 L102.68,65.18 L102.99,65.25 L102.68,65.18 L102.1,65.05 L101.21,64.72 L100.81,64.55 L100.29,64.13 L99.98,63.43 L100.3,64.13 M106.82,10.35 L107.75,10.92 L108.38,11.34 L109.72,12.26 L110.49,12.81 L112.09,13.97 L112.94,14.61 L117.11,18.08 L119.79,20.64 L121.07,22.03 L123.59,24.87 L124.77,26.38 L127.08,29.45 L128.15,31.06 L130.22,34.31 L131.16,35.98 L132.96,39.36 L133.75,41.07 L135.25,44.52 L135.87,46.25 L137.03,49.72 L137.46,51.44 L138.11,54.78 L138.45,57.37 L138.58,58.8 L138.62,59.49 L133.23,59.65 L131.65,59.69 L128.95,59.79 L128.36,59.81 L127.47,59.85 L126.73,59.9 L126.52,59.92 L126.2,60.66 L125.98,62.37 L125.98,62.95 L125.79,63.73 L125.62,64.08 L124.98,64.4 L124.98,61.57 L124.87,59.87 L124.68,58.55 L124.54,57.81 L123.86,54.71 L123.37,53.03 L122.31,49.63 L121.69,48 L120.41,44.81 L119.73,43.48 L117.03,38.92 L114.84,35.85 L113.56,34.33 L110.9,31.29 L109.41,29.81 L106.34,26.88 L104.68,25.48 L102.36,23.45 L101.05,22.23 L100.51,21.69 L99.53,20.63 L99.15,20.16 L98.47,19.26 L98.25,18.87 L97.89,18.12 L97.82,17.8 L97.75,17.18 L97.83,16.92 L98.07,16.44 L98.29,16.24 L98.82,15.87 L99.19,15.73 L101.32,15.39 L103,15.45 L103.7,15.62 L105.09,15.9 L105.66,15.87 L105.8,15.7 L105.99,15.26 L105.98,14.84 L105.9,13.86 L105.79,13.12 L105.68,10.9 L105.74,10.39 L105.81,10.23 L105.95,9.98 L106.05,9.98 M66.88,59.98 L66.67,60.48 L51.42,60.2 L38.83,59.98 M41.77,131.23 L39.75,130.27 L35.78,128.26 L33.89,127.14 L30.17,124.81 L28.42,123.54 L24.98,120.91 L23.37,119.5 L20.22,116.6 L18.76,115.05 L17.72,113.9 L19.84,116.09 L21.63,117.85 L25.51,121.12 L27.49,122.71 L31.71,125.6 L33.86,126.99 L38.36,129.45 L40.64,130.63 L45.35,132.61 L52.59,135 L45.99,132.9" id="Shape" fill="#0558CD" fill-rule="nonzero"></path>
            <path d="M37.71,129.24 L37.24,129.02 L37,128.88 M14.61,110.23 L15.39,111.22 L15.03,110.83 L13.15,108.29 L12.96,108.02 M35.98,59.93 L51.42,60.2 L66.86,60.48 L64.67,64.61 L62.83,68.07 L59,75 L58.06,76.69 L56.22,79.92 L55.32,81.49 L53.62,84.4 L52.8,85.8 L51.31,88.27 L50.6,89.44 L49.39,91.34 L48.83,92.21 L47.97,93.43 L47.16,94.36 L46.96,94.48 L46.29,94.97 L45.92,95.26 L44.99,96.01 L41.81,98.75 L41.34,99.17 L40.57,99.86 L40.21,100.19 L39.64,100.67 L39.12,101.11 L38.6,101.41 L38.41,101.47 L38.44,101.04 L38.93,99.62 L39.21,98.89 L40.06,96.93 L41.37,94.2 L41.67,93.61 L42.05,92.69 L42.21,92.25 L42.29,91.49 L42.29,91.11 L42.08,90.34 L41.42,88.96 L40.05,86.48 L40.02,89.61 L40,90.63 L39.9,91.04 L39.98,90.67 L39.98,89.8 L39.86,88.43 L39.64,87.74 L39.45,87.48 L39,87 L38.68,86.83 L37.96,86.51 L37.48,86.39 L34.44,86.01 L32.73,86.2 L32.07,86.5 L30.88,87.24 L30.53,87.79 L29.98,89.02 L29.98,89.8 L30.33,92.12 L30.85,93.45 L31.18,93.78 L32.1,94.41 L32.61,94.57 L31.94,94.54 L31.47,94.53 L30.73,94.66 L30.39,94.75 L29.92,95.05 L29.72,95.21 L29.53,95.66 L29.46,95.9 L29.55,96.48 L29.62,96.79 L29.99,97.49 L30.21,97.86 L30.86,98.67 L32.16,100 L33.03,100.79 L34.56,101.93 L34.9,102.16 L35.43,102.44 L35.9,102.53 L36.06,102.43 L36.31,102.98 L36.48,104.58 L36.48,105.08 L36.36,105.81 L36.28,106.13 L35.91,106.54 L35.68,106.71 L34.96,106.89 L33.37,106.98 L32.76,106.98 L31.65,106.76 L31.1,106.6 L29.97,105.99 L29.4,105.63 L28.1,104.53 L25.8,102.22 L23.87,100.15 L20.7,95.82 L19.23,93.62 L16.99,89.07 L16,86.77 L14.74,82.07 L13.98,74.93 L13.98,74.71 L14.31,77.83 L15.04,82.76 L15.35,84.26 L15.5,84.88 L15.81,86.02 L15.95,86.39 L16.29,87.22 L16.45,87.53 L16.78,88.07 L16.95,88.23 L17.28,88.47 L17.45,88.48 L17.79,88.43 L17.96,88.28 L18.32,87.92 L18.51,87.62 L18.89,86.94 L19.1,86.48 L19.52,85.48 L19.74,84.85 L20.2,83.52 L20.45,82.73 L22.11,77.48 L28.8,77.24 L36.98,76.58 L39.56,76.24 L40.76,76.03 L43.09,75.62 L44.12,75.39 L46.07,74.93 L46.87,74.69 L48.35,74.2 L48.87,73.96 L49.76,73.48 L49.94,73.25 L50.13,72.79 L49.92,72.59 L49.28,72.32 L48.51,72.17 L47.96,72.1 L46.74,71.98 L45.96,71.93 L44.31,71.83 L43.32,71.8 L42.73,71.78 L42.76,71.78 L43.5,71.79 L44.81,71.82 L46.48,71.88 L47.35,71.91 L48.79,71.96 L49.46,71.98 L50.54,71.99 L51.04,71.98 L51.82,71.92 L52.19,71.88 L52.74,71.74 L53.25,71.56 L53.85,70.86 L54.63,69.11 L55.77,66.07 L51.2,65.39 L50.88,65.34 L49.99,65.26 L49.5,65.22 L48.3,65.16 L47.04,65.11 L43.8,65.06 L42.1,65.04 L38.31,65.08 L32.43,65.23 L30.48,65.3 L26.85,65.39 L26,65.4 L27.66,65.23 L29.21,65.04 L29.86,64.95 L31.07,64.77 L31.57,64.68 L32.48,64.5 L32.84,64.39 L34.04,63.97 L34.36,63.7 L34.83,63.11 L34.92,62.72 L34.98,62.19 L35.03,61.57 L35.06,61.15 L35.12,60.23 L35.15,59.67 L35.21,58.48 L35.24,57.8 L35.38,54.87 L35.44,53.17 L35.58,49.62 L35.64,47.73 L35.98,37.3 M1.41,81.58 L1.83,83.69 L2.97,87.81 L3.59,89.85 L5.09,93.82 L5.89,95.79 L7.75,99.58 L8.73,101.46 L10.93,105.06 L11.14,105.38 L9.56,103.1 L8.06,100.34 L5.25,94.72 L4.16,91.78 L2.2,85.81 L1.56,82.72 L1.06,79.62 M37.84,94.37 L37.75,94.39 L37.89,94.32 M39.32,92.95 L39.21,93.07 L39.34,92.89 M122.71,80.02 L122.55,81.78 L121.97,84.61 L121.81,85.25 L121.43,86.34 L121.23,86.85 L120.79,87.66 L120.57,88.03 L120.08,88.55 L119.83,88.77 L119.31,88.97 L119.04,89.03 L118.49,88.9 L118.21,88.79 L117.65,88.31 L117.46,88.13 L117.18,87.14 L116.98,85.27 L116.98,84.94 L116.78,84.15 L116.65,83.73 L116.24,82.85 L114.47,80.38 L113.96,79.87 L113.05,79.15 L112.59,78.83 L111.63,78.43 L111.14,78.26 L109.98,78.13 L107.82,78.17 L107.1,78.23 L105.9,78.43 L105.33,78.54 L104.41,78.88 L103.98,79.07 L103.32,79.55 L102.58,80.46 L102.28,81 L101.36,82.2 L99.98,83.63 L99.6,83.94 L98.91,84.12 L98.58,84.15 L98.01,83.86 L97.75,83.67 L97.33,83.01 L97.14,82.64 L96.89,81.71 L96.69,80.73 L96.89,78.42 L96.99,77.84 L97.38,76.73 L98.25,75.23 L98.42,75.01 L99.38,74.66 L99.97,74.51 L101.84,74.28 L102.9,74.17 L105.75,74.05 L106.53,74.03 L108.29,74 L111.24,73.98 L123.26,73.98 M33.83,81.98 L32.85,81.99 L32.4,81.99 L31.69,82.02 L31.04,82.06 L30.38,82.29 L30.14,82.44 L30.13,83 L30.59,84.4 L30.69,84.66 L31.08,85.09 L31.31,85.28 L31.97,85.58 L32.33,85.71 L33.23,85.88 L34.87,85.98 L35.62,85.98 L36.71,85.89 L37.19,85.83 L37.86,85.58 L38.14,85.43 L38.47,84.97 L38.61,84.71 L38.71,83.98 L38.74,83.55 L38.63,82.94 L38.53,82.67 L38.04,82.33 L37.74,82.19 L36.72,82.05 L34.42,81.98 M138.95,64.79 L138.95,67.94 L138.83,74.25 L138.59,77.08 L138.31,79.84 L138.12,81.07 L137.72,83.4 L137.63,83.73 L137.72,83.41 L138.12,81.09 L138.3,79.86 L138.58,77.11 L138.83,74.28 L138.95,67.97 L138.95,64.82 L138.83,62.93 M0.26,61.86 L0.08,64.12 L0.03,68.57 L0.06,70.79 L0.42,75.15 L0.58,76.66 L0.49,76.12 L0.08,71.76 L0.02,69.61 L0,65.32 L0.13,63.22 L0.48,59.03 L0.7,57.63 M95.98,33.82 L107.48,33.86 L111.26,38.09 L113.03,39.93 L114,40.8 L114.4,41.06 L115.12,41.46 L115.41,41.49 L115.91,41.45 L116.1,41.26 L116.56,39.79 L116.29,38.47 L115.89,37.67 L114.93,36.01 L114.63,35.61 L114.84,35.85 L117.03,38.92 L119.73,43.48 L120.41,44.81 L121.69,48 L122.31,49.63 L123.37,53.03 L123.86,54.71 L124.54,57.81 L124.68,58.55 L124.87,59.87 L124.98,61.57 L124.98,64.8 L116.6,65.5 L114.17,65.7 L109.91,65.8 L108.9,65.8 L107.08,65.73 L106.2,65.68 L104.65,65.52 L103.91,65.43 L102.68,65.18 L102.1,65.05 L101.21,64.72 L100.81,64.54 L100.3,64.13 L99.98,63.43 L99.98,63.33 L100.1,62.95 L100.18,62.72 L100.45,62.1 L100.76,61.43 L101.74,59.52 L102.29,58.49 L103.65,56.05 L105.98,52.06 L106.8,50.69 L108.31,48.06 L109.03,46.79 L110.22,44.57 L110.76,43.53 L111.51,41.95 L111.66,41.61 L111.86,41.08 L111.98,40.58 L111.98,40.38 L111.8,39.8 L111.69,39.49 L111.32,38.76 L109.73,36.49 L109.41,36.12 L108.91,35.52 L108.65,35.24 L107.91,34.81 L107.48,34.61 L106.06,34.31 L105.64,34.25 L104.6,34.14 L104.04,34.09 L102.67,34 L101.94,33.96 L100.19,33.91 L99.26,33.88 L97.07,33.84 L95.92,33.82 L95.36,33.82 M16.65,64.51 L17.34,65.12 L17.43,65.16 L17.26,65.12 L16.85,64.85 L16.25,64.11 M15.75,63.44 L15.67,63.32 L15.63,63.24 M76.36,0.21 L79.54,0.46 L81.04,0.66 L84,1.12 L85.37,1.42 L94.46,4.16 L100.29,6.62 L103.07,8.15 L106.59,10.23 L106.05,9.98 L105.95,9.98 L105.81,10.23 L105.74,10.39 L105.68,10.9 L105.79,13.12 L105.9,13.86 L105.98,14.84 L105.99,15.26 L105.8,15.7 L105.66,15.87 L105.09,15.9 L103.7,15.62 L103,15.45 L101.32,15.39 L99.19,15.73 L98.82,15.87 L98.29,16.24 L98.07,16.44 L97.83,16.92 L97.75,17.18 L97.82,17.8 L97.89,18.12 L98.25,18.87 L98.47,19.26 L99.15,20.16 L99.53,20.63 L100.51,21.69 L101.05,22.23 L102.36,23.45 L104.68,25.48 L106.34,26.88 L109.41,29.81 L110.9,31.29 L111.08,31.5 L109.78,30.18 L108.64,29.17 L106.3,27.16 L105.03,26.19 L102.44,24.29 L101.09,23.42 L98.36,21.75 L96.98,21.04 L93.14,19.16 L90.71,18.05 L89.54,17.58 L84.97,15.87 L82.76,15.28 L78.36,14.28 L76.09,14.01 L71.49,13.61 L68.98,13.6 L64.29,13.8 L61.18,14.13 L59.64,14.4 L53.54,15.69 L50.6,16.69 L44.8,18.91 L42.06,20.33 L36.72,23.37 L34.27,25.15 L29.52,28.89 L27.43,30.99 L23.43,35.33 L21.77,37.69 L20.16,40.08 L19.45,41.31 L18.09,43.8 L17.51,45.09 L16.42,47.67 L15.98,48.99 L15.17,51.66 L14.88,53.01 L14.29,56.86 L14.24,59.03 L14.38,59.96 L14.58,60.82 L14.26,59.73 L13.98,57.55 L13.98,56.84 L13.72,55.73 L13.09,54.98 L12.84,54.98 L12.27,54.25 L11.57,52.48 L11.39,51.77 L10.96,50.82 L10.73,50.42 L10.18,50.1 L9.89,50.02 L9.2,50.32 L7.98,51.48 L7.54,52.01 L6.66,52.63 L6.23,52.86 L5.4,52.88 L5,52.82 L4.26,52.25 L3.28,50.73 L3.06,50.24 L2.72,49.79 L2.55,49.66 L2.28,50 L3.11,46.98 L3.78,45.07 L5.22,41.27 L6.06,39.44 L7.84,35.81 L8.85,34.07 L10.95,30.62 L12.12,28.98 L14.55,25.73 L15.87,24.19 L18.6,21.17 L20.08,19.75 L23.11,16.96 L24.73,15.66 L28.05,13.12 L29.82,11.96 L33.41,9.69 L35.31,8.67 L39.17,6.7 L41.2,5.82 L45.33,4.15 L47.48,3.44 L51.78,2.22 L54.84,1.54 L56.44,1.27 L63.02,0.35 L66.39,0.17 L73.14,0 M112.52,53.98 L111.36,54.36 L110.83,54.6 L110.1,55.31 L109.8,55.7 L109.64,56.56 L110.2,57.8 L110.55,58.15 L111.38,58.62 L111.8,58.81 L112.62,58.94 L113,58.97 L113.59,58.77 L113.83,58.62 L113.98,58.06 L113.98,57.81 L114.16,56.95 L114.59,55.56 L114.69,55.28 L114.75,54.84 L114.75,54.64 L114.58,54.35 L114.47,54.22 L114.07,54.07 L113.21,53.98 M136.66,48.4 L136.89,49.31 L136.12,46.99 M133.19,39.65 L134.42,42.54 L134.62,43.08 L133.75,41.07 L132.96,39.36 L131.23,36.1 M128.52,31.45 L130.14,34.15 L130.89,35.49 L130.22,34.31 L128.15,31.06 L127.5,30.08 M88.68,24.09 L89.24,24.28 L89.43,24.44 L89.76,24.8 L89.85,25.06 L89.98,25.62 L89.98,25.98 L89.81,27.13 L89.49,27.46 L88.7,27.98 L88.1,27.98 L86.61,27.4 L85.83,26.53 L85.69,25.98 L85.54,25 L85.62,24.53 L85.76,24.38 L86.11,24.13 L86.41,24.07 L87.1,23.98 L87.57,23.98 M122.76,23.92 L122.95,24.15 L122.56,23.71 M116.05,17.19 L116.13,17.26 L115.84,17.02 M108.52,11.38 L109.62,12.19 L108.38,11.34 L107.82,10.97" id="Shape" fill="#048FF3" fill-rule="nonzero"></path>
            <path d="M33.88,94.87 L34.9,94.98 L34.26,94.98 L33.48,94.79 M35.32,86.12 L34.12,86.32 L33.6,86.65 L32.67,87.48 L32.4,88.1 L31.98,89.49 L31.98,90.38 L32.18,92.88 L32.31,93.55 L32.39,93.8 L32.55,94.22 L32.65,94.31 L33.34,94.76 L32.79,94.63 L32.1,94.41 L31.18,93.78 L30.85,93.45 L30.33,92.12 L29.98,89.8 L29.98,89.02 L30.53,87.79 L30.88,87.24 L32.07,86.5 L32.73,86.2 L34.44,86.01 M37.18,94.66 L37.14,94.67 L37.25,94.62 M39.46,92.72 L39.07,93.25 L39.61,92.28 M39,87 L39.45,87.48 L39.64,87.74 L39.86,88.43 L39.96,89.58 L39.68,88.21 L39.34,87.65 L38.69,86.83 M37.55,71.69 L40.04,71.72 L41.24,71.74 L43.32,71.8 L44.31,71.83 L45.96,71.93 L46.74,71.98 L47.96,72.1 L48.51,72.17 L49.28,72.32 L49.92,72.59 L50.13,72.79 L49.94,73.25 L49.76,73.48 L48.87,73.96 L48.35,74.2 L46.87,74.69 L46.07,74.93 L44.12,75.39 L43.09,75.62 L40.76,76.03 L39.56,76.24 L36.98,76.58 L28.8,77.24 L22.11,77.48 L20.45,82.73 L20.2,83.52 L19.74,84.85 L19.52,85.48 L19.1,86.48 L18.89,86.94 L18.51,87.62 L18.32,87.92 L17.96,88.28 L17.79,88.43 L17.45,88.48 L17.28,88.47 L16.95,88.23 L16.78,88.07 L16.45,87.53 L16.29,87.22 L15.95,86.39 L15.81,86.02 L15.5,84.88 L15.35,84.26 L15.04,82.76 L14.31,77.83 L13.7,71.98 L26.59,71.77 L28.37,71.74 L31.66,71.7 L33.25,71.69 L36.15,71.69 M37.48,86.39 L37.6,86.42 L37.09,86.34 M71.49,13.61 L76.09,14.01 L78.36,14.28 L82.76,15.28 L84.97,15.87 L89.54,17.58 L90.71,18.05 L93.14,19.16 L96.98,21.04 L98.36,21.75 L101.09,23.42 L102.44,24.29 L105.03,26.19 L106.3,27.16 L108.64,29.17 L109.78,30.18 L111.77,32.19 L112.71,33.19 L114.24,35.09 L114.93,36.01 L115.89,37.67 L116.29,38.47 L116.56,39.79 L116.1,41.26 L115.91,41.45 L115.41,41.49 L115.12,41.46 L114.4,41.06 L114,40.8 L113.03,39.93 L111.26,38.09 L107.48,33.86 L95.98,33.82 L95.19,33.82 L93.18,33.82 L92.11,33.82 L89.61,33.81 L88.3,33.82 L85.41,33.82 L83.93,33.82 L80.75,33.82 L77.52,33.83 L70.59,33.85 L60.28,33.88 L36.09,33.98 L35.64,47.73 L35.58,49.62 L35.44,53.17 L35.38,54.87 L35.24,57.8 L35.21,58.48 L35.15,59.67 L35.12,60.23 L35.06,61.15 L35.03,61.57 L34.98,62.19 L34.92,62.72 L34.83,63.11 L34.36,63.7 L34.04,63.97 L32.84,64.39 L32.48,64.5 L31.57,64.68 L31.07,64.77 L29.86,64.95 L29.21,65.04 L27.66,65.23 L24.9,65.52 L23.55,65.65 L21.52,65.78 L20.6,65.82 L19.26,65.73 L18.65,65.66 L17.76,65.32 L17.34,65.12 L16.65,64.51 L16.03,63.89 L15.16,62.47 L14.78,61.72 L14.38,59.96 L14.24,59.03 L14.29,56.86 L14.88,53.01 L15.17,51.66 L15.98,48.99 L16.42,47.67 L17.51,45.09 L18.09,43.8 L19.45,41.31 L20.16,40.08 L21.77,37.69 L23.43,35.33 L27.43,30.99 L29.52,28.89 L34.27,25.15 L36.72,23.37 L42.06,20.33 L44.8,18.91 L50.6,16.69 L53.54,15.69 L59.64,14.4 L61.18,14.13 L64.29,13.8 L68.98,13.6 M26.48,48.98 L25.42,49.56 L24.98,50.42 L24.98,50.98 L25.15,52.04 L25.42,52.4 L26.06,52.98 L26.48,52.98 L27.54,52.4 L27.98,51.54 L27.98,50.98 L27.54,49.56 L26.9,48.98 M87.1,23.98 L86.41,24.07 L86.11,24.13 L85.76,24.38 L85.62,24.53 L85.54,25 L85.69,25.98 L85.83,26.53 L86.61,27.4 L88.1,27.98 L88.7,27.98 L89.49,27.46 L89.81,27.13 L89.98,25.98 L89.98,25.62 L89.85,25.06 L89.76,24.8 L89.43,24.44 L89.24,24.28 L88.68,24.09 L87.57,23.98 M71.48,22.98 L69.62,23.06 L68.81,23.24 L68.56,23.42 L68.18,23.85 L68.09,24.21 L67.98,25.02 L67.98,25.6 L68,26.59 L68.06,26.92 L68.23,27.49 L68.39,27.63 L68.77,27.83 L69.07,27.82 L69.75,27.74 L70.23,27.61 L72.19,27.18 L73.39,27 L73.73,26.99 L74.61,26.4 L74.98,25.53 L74.98,24.98 L74.83,23.98 L74.55,23.52 L74.29,23.37 L73.68,23.13 L73.22,23.06 L72.19,22.98" id="Shape" fill="#0BE7F8" fill-rule="nonzero"></path>
        </g>
    </g>
</svg>