<svg xmlns="http://www.w3.org/2000/svg" width="141" height="18" viewBox="0 0 141 18"><g fill="none" transform="translate(.04 .44)"><path fill="#001935" d="M.629417831 16.5513578C.45846484 16.5513578.31082362 16.4891931.186494172 16.3648636.0621647241 16.2405342-2.30055693e-15 16.0928929-2.30055693e-15 15.9219399L-2.30055693e-15.862535546C-2.30055693e-15.691582555.0621647241.543941335.186494172.419611887.31082362.295282439.45846484.233117715.629417831.233117715L7.34320803.233117715C8.80407904.233117715 10.1095382.477891316 11.2595856.967438518 12.409633 1.45698572 13.330448 2.17576534 14.0220306 3.12377738 14.7136131 4.07178943 15.0827162 5.24514859 15.1293397 6.64385488 15.1604221 7.31212567 15.1759633 7.89880525 15.1759633 8.40389363 15.1759633 8.90898202 15.1604221 9.48012042 15.1293397 10.1173088 15.067175 11.5781799 14.7097278 12.7865067 14.0569982 13.7422893 13.4042686 14.6980719 12.514536 15.4051957 11.3878004 15.8636605 10.2610648 16.3221254 8.95172026 16.5513578 7.45976689 16.5513578L.629417831 16.5513578ZM5.82794288 12.0055623 7.34320803 12.0055623C7.68511401 12.0055623 7.99205234 11.9395123 8.264023 11.8074123 8.53599367 11.6753122 8.7574555 11.4693916 8.92840849 11.1896503 9.09936148 10.9099091 9.19260857 10.5524619 9.20814975 10.1173088 9.23923211 9.66661459 9.25865859 9.26254388 9.26642918 8.90509672 9.27419977 8.54764956 9.27419977 8.1863171 9.26642918 7.82109935 9.25865859 7.45588159 9.23923211 7.06346677 9.20814975 6.64385488 9.17706739 5.99112528 8.97114674 5.51711926 8.59038781 5.22183682 8.20962887 4.92655438 7.75504933 4.77891316 7.22664917 4.77891316L5.82794288 4.77891316 5.82794288 12.0055623ZM17.8801288 16.5513578C17.7091758 16.5513578 17.5615345 16.4891931 17.4372051 16.3648636 17.3128756 16.2405342 17.2507109 16.0928929 17.2507109 15.9219399L17.2507109.862535546C17.2507109.691582555 17.3128756.543941335 17.4372051.419611887 17.5615345.295282439 17.7091758.233117715 17.8801288.233117715L29.8390675.233117715C30.0100205.233117715 30.1576618.295282439 30.2819912.419611887 30.4063207.543941335 30.4684854.691582555 30.4684854.862535546L30.4684854 4.14949533C30.4684854 4.32044832 30.4063207 4.46808954 30.2819912 4.59241899 30.1576618 4.71674844 30.0100205 4.77891316 29.8390675 4.77891316L22.8455361 4.77891316 22.8455361 6.24755477 29.3262086 6.24755477C29.4971616 6.24755477 29.6448028 6.30971949 29.7691322 6.43404894 29.8934617 6.55837839 29.9556264 6.70601961 29.9556264 6.8769726L29.9556264 9.9075029C29.9556264 10.0784559 29.8934617 10.2260971 29.7691322 10.3504266 29.6448028 10.474756 29.4971616 10.5369207 29.3262086 10.5369207L22.8455361 10.5369207 22.8455361 12.0055623 30.0255617 12.0055623C30.1965147 12.0055623 30.3441559 12.0677271 30.4684854 12.1920565 30.5928148 12.316386 30.6549795 12.4640272 30.6549795 12.6349802L30.6549795 15.9219399C30.6549795 16.0928929 30.5928148 16.2405342 30.4684854 16.3648636 30.3441559 16.4891931 30.1965147 16.5513578 30.0255617 16.5513578L17.8801288 16.5513578ZM37.3221462 16.5513578C37.0113226 16.5513578 36.7704343 16.4658813 36.5994813 16.2949283 36.4285283 16.1239753 36.31974 15.9530223 36.2731165 15.7820693L31.8905034.909159089C31.8749623.846994365 31.8671917.792600232 31.8671917.745976689 31.8671917.60610606 31.9177005.485661907 32.0187182.38464423 32.1197359.283626553 32.24018.233117715 32.3800506.233117715L36.7160401.233117715C37.0268638.233117715 37.2677521.318594211 37.4387051.489547202 37.6096581.660500193 37.7184463.831453184 37.7650699 1.00240618L39.9796882 9.67438518 42.1943065 1.00240618C42.24093.831453184 42.3497183.660500193 42.5206713.489547202 42.6916242.318594211 42.9325125.233117715 43.2433362.233117715L47.5793257.233117715C47.7191963.233117715 47.8396405.283626553 47.9406581.38464423 48.0416758.485661907 48.0921846.60610606 48.0921846.745976689 48.0921846.792600232 48.0844141.846994365 48.0688729.909159089L43.6862598 15.7820693C43.6396363 15.9530223 43.530848 16.1239753 43.359895 16.2949283 43.188942 16.4658813 42.9480537 16.5513578 42.6372301 16.5513578L37.3221462 16.5513578ZM56.5310459 16.7844755C54.8059748 16.7844755 53.3839568 16.5513578 52.2649917 16.0851223 51.1460267 15.6188869 50.3068029 15.0050103 49.7473204 14.2434924 49.1878379 13.4819745 48.8925555 12.6738331 48.8614731 11.8190682 48.8614731 11.6791975 48.9119819 11.5587534 49.0129996 11.4577357 49.1140173 11.356718 49.2344615 11.3062092 49.3743321 11.3062092L53.8035687 11.3062092C54.0522276 11.3062092 54.242607 11.3411768 54.3747071 11.4111122 54.5068071 11.4810475 54.650563 11.5781799 54.8059748 11.7025093 54.9613867 11.8112976 55.1206838 11.90843 55.2838662 11.9939064 55.4470486 12.0793829 55.6335427 12.1415477 55.8433487 12.1804006 56.0531546 12.2192536 56.282387 12.23868 56.5310459 12.23868 57.0594461 12.23868 57.4829433 12.1804006 57.8015375 12.0638418 58.1201317 11.9472829 58.2794288 11.7879858 58.2794288 11.5859504 58.2794288 11.3994563 58.190067 11.2440445 58.0113434 11.119715 57.8326198 10.9953856 57.5256815 10.882712 57.0905285 10.7816943 56.6553754 10.6806767 56.0492693 10.5835443 55.2722103 10.4902972 54.044457 10.3193442 52.9798861 10.0318323 52.0784976 9.62776164 51.1771091 9.22369093 50.4816412 8.66809371 49.992094 7.96096997 49.5025468 7.25384624 49.2577732 6.3874254 49.2577732 5.36170745 49.2577732 4.30490714 49.556941 3.37243628 50.1552764 2.56429487 50.7536119 1.75615345 51.5850651 1.12673562 52.649636.676041374 53.7142069.225347125 54.9536161 0 56.3678635 0 57.5334521 0 58.5669406.151526515 59.4683291.454579545 60.3697176.757632574 61.1312355 1.15393269 61.7528828 1.64347989 62.37453 2.13302709 62.848536 2.65754195 63.1749008 3.21702447 63.5012656 3.77650699 63.6722186 4.31267773 63.6877598 4.8255367 63.6877598 4.96540733 63.637251 5.08585149 63.5362333 5.18686916 63.4352156 5.28788684 63.322542 5.33839568 63.1982126 5.33839568L58.5358583 5.33839568C58.3182818 5.33839568 58.1434435 5.30731332 58.0113434 5.24514859 57.8792434 5.18298387 57.7432581 5.08973678 57.6033874 4.96540733 57.5256815 4.88770143 57.3819256 4.79833964 57.1721197 4.69732196 56.9623137 4.59630428 56.6942283 4.54579545 56.3678635 4.54579545 55.979334 4.54579545 55.6957075 4.60407488 55.5169839 4.72063373 55.3382603 4.83719259 55.2488985 4.9964897 55.2488985 5.19852505 55.2488985 5.33839568 55.3188338 5.47049572 55.4587044 5.59482516 55.5985751 5.71915461 55.8550046 5.82794288 56.2279929 5.92118997 56.6009813 6.01443705 57.137152 6.10768414 57.8365051 6.20093122 59.3906232 6.3874254 60.637803 6.68659313 61.5780445 7.09843443 62.5182859 7.51027572 63.2020979 8.05810236 63.6294804 8.74191432 64.0568628 9.42572628 64.2705541 10.2727206 64.2705541 11.2828974 64.2705541 12.4174036 63.9325334 13.396498 63.256492 14.2201806 62.5804506 15.0438632 61.6596357 15.6771663 60.4940471 16.12009 59.3284585 16.5630137 58.0074581 16.7844755 56.5310459 16.7844755Z"/><path fill="#0558CD" d="M67.690909,16.5513578 C67.5510384,16.5513578 67.4305942,16.5008489 67.3295765,16.3998313 C67.2285589,16.2988136 67.17805,16.1783694 67.17805,16.0384988 C67.17805,15.9607929 67.1935912,15.8908576 67.2246736,15.8286929 L72.2600162,5.01203088 L65.8492791,5.01203088 C65.6783261,5.01203088 65.5306848,4.94986615 65.4063554,4.8255367 C65.2820259,4.70120726 65.2198612,4.55356604 65.2198612,4.38261305 L65.2198612,0.862535546 C65.2198612,0.691582555 65.2820259,0.543941335 65.4063554,0.419611887 C65.5306848,0.295282439 65.6783261,0.233117715 65.8492791,0.233117715 L79.2361713,0.233117715 C79.4226655,0.233117715 79.574192,0.295282439 79.6907508,0.419611887 C79.8073097,0.543941335 79.8655891,0.691582862 79.8655891,0.862535546 C79.8655891,1.61726341 78.3055356,4.97317792 78.2278297,5.12858973 L73.1458635,16.015187 C73.09924,16.0928929 73.0021076,16.2016812 72.8544664,16.3415518 C72.7068252,16.4814225 72.4853633,16.5513578 72.1900809,16.5513578 L67.690909,16.5513578 Z"/><path fill="#001935" d="M89.2668665 16.7844755C87.7829266 16.7844755 86.474007 16.5588855 85.3401079 16.1077056 84.2062088 15.6565257 83.3232754 14.9566262 82.6913079 14.0080071 82.0593403 13.059388 81.7433565 11.8539144 81.7433565 10.3915864L81.7433565.859257328C81.7433565.688304337 81.8050356.541209487 81.9283937.417972778 82.0517518.29473607 82.1986646.233117715 82.3691319.233117715L86.79764.233117715C86.968593.233117715 87.1157485.29473607 87.2391067.417972778 87.3624648.541209487 87.4241438.688304337 87.4241438.859257328L87.4241438 10.303803C87.4241438 10.9181653 87.5768238 11.3894395 87.8821837 11.7176255 88.1875437 12.0458116 88.6416982 12.2099046 89.2446475 12.2099046 89.8468683 12.2099046 90.3006586 12.0458116 90.6060185 11.7176255 90.9113785 11.3894395 91.0640584 10.9181653 91.0640584 10.303803L91.0640584.859257328C91.0640584.688304337 91.1258589.541209487 91.2494599.417972778 91.3730608.29473607 91.5200949.233117715 91.6905623.233117715L96.1190704.233117715C96.2895377.233117715 96.4364504.29473607 96.5598086.417972778 96.6831667.541209487 96.7448457.688304337 96.7448457.859257328L96.7448457 10.3915864C96.7448457 11.8539144 96.4289834 13.059388 95.7972587 14.0080071 95.1655339 14.9566262 94.2866073 15.6565257 93.1604787 16.1077056 92.0343502 16.5588855 90.7364795 16.7844755 89.2668665 16.7844755ZM99.8562302 16.5513578C99.6857629 16.5513578 99.5388502 16.4897394 99.415492 16.3665027 99.2921339 16.243266 99.2304548 16.096414 99.2304548 15.9259467L99.2304548.859257328C99.2304548.688304337 99.2921339.541209487 99.415492.417972778 99.5388502.29473607 99.6857629.233117715 99.8562302.233117715L106.510648.233117715C107.977833.233117715 109.282806.477769901 110.425569.967074272 111.568331 1.45637864 112.480465 2.17491543 113.16197 3.12268464 113.843475 4.07045386 114.207054 5.2428417 114.252706 6.63984817 114.283303 7.30933311 114.298601 7.89710543 114.298601 8.40316514 114.298601 8.90922485 114.283303 9.48194165 114.252706 10.1213156 114.191513 11.5809724 113.839044 12.7883279 113.195299 13.7433821 112.551554 14.6984362 111.669835 15.4051957 110.550141 15.8636605 109.430448 16.3221254 108.122803 16.5513578 106.627207 16.5513578L99.8562302 16.5513578ZM104.911242 12.1119223 106.510648 12.1119223C106.883151 12.1119223 107.212976 12.0424726 107.500124 11.9035733 107.787271 11.764674 108.018811 11.5475832 108.194742 11.2523007 108.370673 10.9570183 108.466409 10.5786877 108.48195 10.1173088 108.512547 9.66612893 108.531609 9.26193681 108.539137 8.90473247 108.546664 8.54752814 108.546664 8.18668135 108.539137 7.82219208 108.531609 7.45770282 108.512547 7.06492376 108.48195 6.64385488 108.450868 5.95542913 108.238512 5.45477241 107.844883 5.14188473 107.451254 4.82899705 106.967656 4.6725532 106.394089 4.6725532L104.911242 4.6725532 104.911242 12.1119223ZM117.057281 16.5513578C116.886814 16.5513578 116.739901 16.4897394 116.616543 16.3665027 116.493185 16.243266 116.431506 16.096414 116.431506 15.9259467L116.431506.858528836C116.431506.688061506 116.493185.541209487 116.616543.417972778 116.739901.29473607 116.886814.233117715 117.057281.233117715L121.66682.233117715C121.837287.233117715 121.984139.29473607 122.107376.417972778 122.230613.541209487 122.292231.688061506 122.292231.858528836L122.292231 15.9259467C122.292231 16.096414 122.230613 16.243266 122.107376 16.3665027 121.984139 16.4897394 121.837287 16.5513578 121.66682 16.5513578L117.057281 16.5513578ZM132.222246 16.7844755C130.707224 16.7844755 129.382642 16.5514792 128.2485 16.0854866 127.114358 15.619494 126.220072 14.9161341 125.565642 13.975407 124.911213 13.0346799 124.553159 11.8713982 124.49148 10.485562 124.475939 9.84618808 124.468168 9.17093591 124.468168 8.45980546 124.468168 7.74867501 124.475939 7.05836732 124.49148 6.38888238 124.553159 5.01883014 124.907996 3.85961588 125.55599 2.91123959 126.203984 1.9628633 127.098938 1.24056263 128.24085.74433758 129.382763.248112527 130.709895 0 132.222246 0 133.73484 0 135.062093.248112527 136.204006.74433758 137.345918 1.24056263 138.244757 1.9628633 138.900522 2.91123959 139.556287 3.85961588 139.907239 5.01883014 139.953376 6.38888238 139.984459 7.05836732 140 7.74867501 140 8.45980546 140 9.17093591 139.984459 9.84618808 139.953376 10.485562 139.892183 11.8713982 139.53425 13.0346799 138.879578 13.975407 138.224906 14.9161341 137.330499 15.619494 136.196357 16.0854866 135.062215 16.5514792 133.737511 16.7844755 132.222246 16.7844755ZM132.222246 12.34504C132.763031 12.34504 133.198184 12.1849537 133.527705 11.8647811 133.857227 11.5446085 134.030487 11.0384881 134.047485 10.3464198 134.078567 9.67717774 134.094108 9.01825595 134.094108 8.36965447 134.094108 7.72105299 134.078567 7.07718672 134.047485 6.43805565 134.031458 5.97667684 133.945192 5.59792126 133.788688 5.30178891 133.632183 5.00565656 133.422074 4.78789791 133.158359 4.64851294 132.894645 4.50912797 132.582607 4.43943549 132.222246 4.43943549 131.877669 4.43943549 131.56982 4.50912797 131.298699 4.64851294 131.027578 4.78789791 130.813705 5.00565656 130.657079 5.30178891 130.500453 5.59792126 130.413884 5.97667684 130.397371 6.43805565 130.38183 7.07718672 130.37406 7.72105299 130.37406 8.36965447 130.37406 9.01825595 130.38183 9.67717774 130.397371 10.3464198 130.429425 11.0384881 130.60657 11.5446085 130.928807 11.8647811 131.251044 12.1849537 131.68219 12.34504 132.222246 12.34504Z"/></g></svg>